# xmcd
#
# Track frame offsets: 
#        150
#        53360
#        59940
#        104045
#        146340
#        171705
#        214732
#        218065
#        260640
#
# Disc length: 4167 seconds
#
# Revision: 7
# Processed by: cddbd v1.5.2PL0 Copyright (c) Steve Scherf et al.
# Submitted via: ExactAudioCopy v1.1
#
DISCID=94104509
DTITLE=Miles Davis Sextet - Miles Davis and John Coltrane - Complete Col
DTITLE=umbia Recordings - Disc 4
DYEAR=2000
DGENRE=Jazz
TTITLE0=Love For Sale (master - take 1) (stereo)
TTITLE1=Freddie Freeloader (alt - take 3 - false start) (stereo)
TTITLE2=Freddie Freeloader (master - take 4) (stereo)
TTITLE3=So What (master - take 3) (stereo)
TTITLE4=Blue in Green (master - take 5) (stereo)
TTITLE5=Flamenco Sketches (alt - take 1) (stereo)
TTITLE6=Miles Davis Comments (stereo)
TTITLE7=Flamenco Sketches (master - take 6) (stereo)
TTITLE8=All Blues (master - take 1) (stereo)
EXTD=
EXTT0=
EXTT1=
EXTT2=
EXTT3=
EXTT4=
EXTT5=
EXTT6=
EXTT7=
EXTT8=
PLAYORDER=
